<?xml version="1.0" encoding="iso-8859-1"?>
<!-- Generator: Adobe Illustrator 19.0.0, SVG Export Plug-In . SVG Version: 6.00 Build 0)  -->
<svg version="1.1" id="Layer_1" xmlns="http://www.w3.org/2000/svg" xmlns:xlink="http://www.w3.org/1999/xlink" x="0px" y="0px"
	 viewBox="0 0 512 512" style="enable-background:new 0 0 512 512;" xml:space="preserve">
<path style="fill:#FFBF1F;" d="M388.249,52.738c-10.071,0-18.233,8.163-18.233,18.233v103.478h36.466V70.971
	C406.481,60.902,398.318,52.738,388.249,52.738z"/>
<path style="fill:#FFA01F;" d="M270.882,74.049c0,24.306,43.074,44.413,99.132,47.788h19.839V74.049H270.882z"/>
<path style="fill:#FFBF1F;" d="M127.906,52.738c10.07,0,18.233,8.163,18.233,18.233v103.478h-36.466V70.971
	C109.671,60.902,117.836,52.738,127.906,52.738z"/>
<path style="fill:#FFA01F;" d="M245.271,74.049c0,24.306-43.075,44.413-99.134,47.788h-19.839V74.049H245.271z"/>
<polygon style="fill:#FFBF1F;" points="115.357,234.347 137.331,459.262 374.669,459.262 396.643,234.347 "/>
<g>
	<polygon style="fill:#FFA01F;" points="76.358,256.321 76.358,459.262 137.331,459.262 137.331,234.347 	"/>
	<polygon style="fill:#FFA01F;" points="435.641,256.321 374.669,234.347 374.669,459.262 435.641,459.262 	"/>
</g>
<polygon style="fill:#FF7424;" points="58.938,213.107 76.358,256.321 435.641,256.321 453.062,213.107 256,191.133 "/>
<polygon style="fill:#FFA01F;" points="435.641,152.474 76.358,152.474 58.938,213.107 453.062,213.107 "/>
<path d="M503.21,336.076h-58.779v-21.887h58.779c4.854,0,8.79-3.936,8.79-8.79c0-4.854-3.936-8.79-8.79-8.79h-58.779v-38.583
	l14.565-36.129h2.776c4.854,0,8.79-3.936,8.79-8.79s-3.936-8.79-8.79-8.79h-2.091l-15.592-54.271
	c-1.082-3.767-4.529-6.363-8.448-6.363H415.27V70.971c0-14.901-12.122-27.023-27.023-27.023c-12.941,0-23.781,9.145-26.41,21.311
	h-90.956c-4.854,0-8.79,3.936-8.79,8.79c0,28.195,40.346,50.691,99.132,55.945v13.691H154.928v-13.691
	c58.787-5.254,99.132-27.75,99.132-55.945c0-4.854-3.936-8.79-8.79-8.79h-90.956c-2.629-12.166-13.469-21.311-26.41-21.311
	c-14.901,0-27.023,12.122-27.023,27.023v72.714H76.358c-3.919,0-7.366,2.595-8.448,6.363l-15.592,54.271h-2.091
	c-4.854,0-8.79,3.936-8.79,8.79s3.936,8.79,8.79,8.79h2.776l14.565,36.129v38.583H8.79c-4.854,0-8.79,3.936-8.79,8.79
	c0,4.854,3.936,8.79,8.79,8.79h58.779v21.887H8.79c-4.854,0-8.79,3.936-8.79,8.79c0,4.854,3.936,8.79,8.79,8.79h58.779v105.605
	c0,4.854,3.936,8.79,8.79,8.79h359.283c4.854,0,8.79-3.936,8.79-8.79V353.656h58.779c4.854,0,8.79-3.936,8.79-8.79
	C512,340.012,508.064,336.076,503.21,336.076z M146.121,336.076v-70.966H365.88v70.966H146.121z M365.879,353.656v96.816H146.121
	v-96.816L365.879,353.656L365.879,353.656z M383.458,265.111h43.394v70.966h-43.394V265.111z M370.543,113.063
	c-46.177-2.78-77.879-16.474-87.668-30.226h95.993c4.854,0,8.79-3.936,8.79-8.79c0-4.255-3.025-7.804-7.042-8.615
	c1.718-2.361,4.496-3.906,7.633-3.906c5.207,0,9.443,4.236,9.443,9.443v72.714h-18.887v-21.848
	C378.804,117.188,375.184,113.342,370.543,113.063z M118.462,70.971c0-5.207,4.236-9.443,9.443-9.443
	c3.137,0,5.914,1.544,7.633,3.906c-4.017,0.811-7.042,4.36-7.042,8.615c0,4.854,3.936,8.79,8.79,8.79h95.993
	c-9.791,13.751-41.493,27.445-87.668,30.226c-4.641,0.279-8.262,4.125-8.262,8.773v21.848h-18.887L118.462,70.971L118.462,70.971z
	 M82.978,161.264h346.043l12.369,43.054H70.609L82.978,161.264z M440.042,221.897l-10.333,25.634H82.291l-10.334-25.634H440.042z
	 M85.148,265.111h43.394v70.966H85.148V265.111z M85.148,353.656h43.394v96.816H85.148V353.656z M426.852,450.472h-43.394v-96.816
	h43.394V450.472z"/>
<g>
</g>
<g>
</g>
<g>
</g>
<g>
</g>
<g>
</g>
<g>
</g>
<g>
</g>
<g>
</g>
<g>
</g>
<g>
</g>
<g>
</g>
<g>
</g>
<g>
</g>
<g>
</g>
<g>
</g>
</svg>
