<svg id="Capa_1" enable-background="new 0 0 512 512" height="512" viewBox="0 0 512 512" width="512" xmlns="http://www.w3.org/2000/svg"><g><path d="m321 194v-179c0-8.284-6.716-15-15-15h-234c-8.284 0-15 6.716-15 15v179c0 8.284 6.716 15 15 15h234c8.284 0 15-6.716 15-15zm-51-48c0 8.284-6.716 15-15 15h-128c-8.284 0-15-6.716-15-15v-44.459l-6.417-12.833c-3.705-7.409-.701-16.42 6.708-20.124 7.408-3.706 16.419-.702 20.125 6.708l8 16c1.042 2.083 1.584 4.379 1.584 6.708v33h34v-29.799l-13.013-29.1c-3.382-7.563.007-16.435 7.57-19.816 7.563-3.38 16.434.007 19.817 7.57l14.319 32.021c.862 1.927 1.307 4.014 1.307 6.124v33h34v-29.919l-18.211-42.467c-3.265-7.614.26-16.433 7.874-19.698 7.613-3.266 16.433.261 19.697 7.874l19.426 45.298c.801 1.868 1.214 3.88 1.214 5.912z"/><path d="m321 239h-318.42c-1.665 4.695-2.58 9.741-2.58 15v52c0 24.813 20.187 45 45 45h276z"/><path d="m461 265h-46v-11c0-5.259-.915-10.305-2.58-15h-61.42v112h19c24.813 0 45-20.187 45-45v-11h46c11.579 0 21 9.421 21 21v73c0 11.579-9.421 21-21 21h-169c-28.121 0-51 22.879-51 51s22.879 51 51 51h92c8.284 0 15-6.716 15-15s-6.716-15-15-15h-92c-11.579 0-21-9.421-21-21s9.421-21 21-21h169c28.121 0 51-22.879 51-51v-73c0-28.121-22.879-51-51-51z"/></g></svg>