<svg viewBox="0 -31 512 512" xmlns="http://www.w3.org/2000/svg"><path d="m384.5 0c-70.417969 0-128.5 57.082031-128.5 127.5 0-70.417969-58.082031-127.5-128.5-127.5s-127.5 57.082031-127.5 127.5v322.5h512v-322.5c0-70.417969-57.082031-127.5-127.5-127.5zm0 0" fill="#fed2a4"/><path d="m512 450h-256v-322.5c0-70.414062 58.085938-127.5 128.5-127.5s127.5 57.085938 127.5 127.5zm0 0" fill="#ffbd86"/><g fill="#c6715a"><path d="m45 360h150v30h-150zm0 0"/><path d="m45 300h150v30h-150zm0 0"/><path d="m45 240h150v30h-150zm0 0"/><path d="m45 180h150v30h-150zm0 0"/><path d="m45 120h150v30h-150zm0 0"/></g><path d="m317 360h150v30h-150zm0 0" fill="#b35f49"/><path d="m317 300h150v30h-150zm0 0" fill="#b35f49"/><path d="m317 240h150v30h-150zm0 0" fill="#b35f49"/><path d="m317 180h150v30h-150zm0 0" fill="#b35f49"/><path d="m317 120h150v30h-150zm0 0" fill="#b35f49"/></svg>