<svg id="Capa_1" enable-background="new 0 0 512 512" height="512" viewBox="0 0 512 512" width="512" xmlns="http://www.w3.org/2000/svg"><g><path d="m377 1h-1c-52.181 0-97.538 29.761-120 73.198-22.462-43.437-67.819-73.198-120-73.198h-1c-74.439 0-135 60.561-135 135v360c0 8.284 6.716 15 15 15h482c8.284 0 15-6.716 15-15v-360c0-74.439-60.561-135-135-135z" fill="#9b786f"/><path d="m497 511c8.284 0 15-6.716 15-15v-360c0-74.439-60.561-135-135-135h-1c-52.181 0-97.538 29.761-120 73.198v436.802z" fill="#704c55"/><g fill="#ffe178"><path d="m136 159.038c-8.591 0-17.182-2.478-27.855-7.433-10.446-4.85-21.72-.051-21.829 0-7.513 3.487-16.433.225-19.921-7.289s-.226-16.433 7.289-19.922c2.41-1.118 24.208-10.626 47.095 0 13.23 6.144 17.213 6.144 30.444 0 2.409-1.118 24.207-10.624 47.094 0 7.514 3.489 10.777 12.408 7.289 19.922s-12.408 10.778-19.921 7.289c-10.446-4.85-21.72-.051-21.828 0-10.675 4.956-19.266 7.433-27.857 7.433z"/><path d="m136 229.482c-8.591 0-17.182-2.478-27.855-7.433-10.446-4.851-21.72-.052-21.829 0-7.513 3.487-16.433.225-19.921-7.289s-.226-16.433 7.289-19.922c2.41-1.118 24.208-10.626 47.095 0 13.23 6.144 17.213 6.144 30.444 0 2.409-1.119 24.207-10.624 47.094 0 7.514 3.489 10.777 12.408 7.289 19.922s-12.408 10.775-19.921 7.289c-10.446-4.851-21.72-.052-21.828 0-10.675 4.956-19.266 7.433-27.857 7.433z"/><path d="m136 295.038c-8.591 0-17.182-2.478-27.855-7.433-10.446-4.851-21.72-.052-21.829 0-7.513 3.486-16.433.224-19.921-7.289-3.489-7.514-.226-16.433 7.289-19.922 2.41-1.118 24.208-10.626 47.095 0 13.23 6.144 17.213 6.144 30.444 0 2.409-1.118 24.207-10.624 47.094 0 7.514 3.489 10.777 12.408 7.289 19.922-3.488 7.515-12.408 10.777-19.921 7.289-10.446-4.851-21.72-.052-21.828 0-10.675 4.956-19.266 7.433-27.857 7.433z"/><path d="m136 365.482c-8.591 0-17.182-2.478-27.855-7.433-10.446-4.851-21.72-.052-21.829 0-7.513 3.485-16.433.225-19.921-7.289s-.226-16.433 7.289-19.922c2.41-1.118 24.208-10.626 47.095 0 13.23 6.144 17.213 6.144 30.444 0 2.409-1.119 24.207-10.624 47.094 0 7.514 3.489 10.777 12.408 7.289 19.922s-12.408 10.775-19.921 7.289c-10.446-4.851-21.72-.052-21.828 0-10.675 4.956-19.266 7.433-27.857 7.433z"/><path d="m136 431.038c-8.591 0-17.182-2.478-27.855-7.433-10.446-4.851-21.72-.052-21.829 0-7.513 3.484-16.433.225-19.921-7.289s-.226-16.433 7.289-19.922c2.41-1.119 24.208-10.625 47.095 0 13.23 6.143 17.213 6.145 30.444 0 2.409-1.118 24.207-10.624 47.094 0 7.514 3.489 10.777 12.408 7.289 19.922-3.488 7.513-12.408 10.776-19.921 7.289-10.446-4.851-21.72-.052-21.828 0-10.675 4.956-19.266 7.433-27.857 7.433z"/></g><path d="m376 159.038c-8.591 0-17.182-2.478-27.855-7.433-10.446-4.85-21.72-.051-21.829 0-7.513 3.487-16.433.225-19.921-7.289s-.226-16.433 7.289-19.922c2.41-1.118 24.208-10.626 47.095 0 13.23 6.144 17.213 6.144 30.444 0 2.409-1.118 24.207-10.624 47.094 0 7.514 3.489 10.777 12.408 7.289 19.922s-12.408 10.778-19.921 7.289c-10.446-4.85-21.72-.051-21.828 0-10.675 4.956-19.266 7.433-27.857 7.433z" fill="#ffc178"/><path d="m376 229.482c-8.591 0-17.182-2.478-27.855-7.433-10.446-4.851-21.72-.052-21.829 0-7.513 3.487-16.433.225-19.921-7.289s-.226-16.433 7.289-19.922c2.41-1.118 24.208-10.626 47.095 0 13.23 6.144 17.213 6.144 30.444 0 2.409-1.119 24.207-10.624 47.094 0 7.514 3.489 10.777 12.408 7.289 19.922s-12.408 10.775-19.921 7.289c-10.446-4.851-21.72-.052-21.828 0-10.675 4.956-19.266 7.433-27.857 7.433z" fill="#ffc178"/><path d="m376 295.038c-8.591 0-17.182-2.478-27.855-7.433-10.446-4.851-21.72-.052-21.829 0-7.513 3.486-16.433.224-19.921-7.289-3.489-7.514-.226-16.433 7.289-19.922 2.41-1.118 24.208-10.626 47.095 0 13.23 6.144 17.213 6.144 30.444 0 2.409-1.118 24.207-10.624 47.094 0 7.514 3.489 10.777 12.408 7.289 19.922-3.488 7.515-12.408 10.777-19.921 7.289-10.446-4.851-21.72-.052-21.828 0-10.675 4.956-19.266 7.433-27.857 7.433z" fill="#ffc178"/><path d="m376 365.482c-8.591 0-17.182-2.478-27.855-7.433-10.446-4.851-21.72-.052-21.829 0-7.513 3.485-16.433.225-19.921-7.289s-.226-16.433 7.289-19.922c2.41-1.118 24.208-10.626 47.095 0 13.23 6.144 17.213 6.144 30.444 0 2.409-1.119 24.207-10.624 47.094 0 7.514 3.489 10.777 12.408 7.289 19.922s-12.408 10.775-19.921 7.289c-10.446-4.851-21.72-.052-21.828 0-10.675 4.956-19.266 7.433-27.857 7.433z" fill="#ffc178"/><path d="m376 431.038c-8.591 0-17.182-2.478-27.855-7.433-10.446-4.851-21.72-.052-21.829 0-7.513 3.484-16.433.225-19.921-7.289s-.226-16.433 7.289-19.922c2.41-1.119 24.208-10.625 47.095 0 13.23 6.143 17.213 6.145 30.444 0 2.409-1.118 24.207-10.624 47.094 0 7.514 3.489 10.777 12.408 7.289 19.922-3.488 7.513-12.408 10.776-19.921 7.289-10.446-4.851-21.72-.052-21.828 0-10.675 4.956-19.266 7.433-27.857 7.433z" fill="#ffc178"/></g></svg>