<?xml version="1.0" encoding="iso-8859-1"?>
<!-- Generator: Adobe Illustrator 19.0.0, SVG Export Plug-In . SVG Version: 6.00 Build 0)  -->
<svg version="1.1" id="Layer_1" xmlns="http://www.w3.org/2000/svg" xmlns:xlink="http://www.w3.org/1999/xlink" x="0px" y="0px"
	 viewBox="0 0 512 512" style="enable-background:new 0 0 512 512;" xml:space="preserve">
<g>
	<circle style="fill:#B2805C;" cx="313.048" cy="391.145" r="8.533"/>
	<circle style="fill:#B2805C;" cx="336.304" cy="356.261" r="8.533"/>
</g>
<path style="fill:#DDA558;" d="M440.884,77.907c-8.908,0-17.426,1.652-25.285,4.643c-10.293-13.745-22.142-22.919-33.095-30.548
	L256,40.624L129.495,52.002c-10.952,7.629-22.801,16.803-33.095,30.548c-7.859-2.991-16.377-4.643-25.285-4.643
	C31.84,77.907,0,109.747,0,149.023c0,38.847,31.153,70.399,69.837,71.083C77.475,352.385,130.887,493.211,256,493.211
	s178.525-140.826,186.163-273.105C480.848,219.42,512,187.87,512,149.023C512,109.747,480.16,77.907,440.884,77.907z
	 M68.864,186.464c0,0.722,0.01,1.448,0.013,2.172c-20.873-1.162-37.441-18.45-37.441-39.613c0-21.915,17.765-39.68,39.679-39.68
	c3.401,0,6.702,0.429,9.851,1.234C73.599,129.381,68.864,153.809,68.864,186.464z M443.123,188.636
	c0.002-0.724,0.013-1.45,0.013-2.172c0-32.654-4.735-57.082-12.101-75.886c3.151-0.804,6.45-1.234,9.851-1.234
	c21.915,0,39.68,17.765,39.68,39.68C480.564,170.185,463.996,187.474,443.123,188.636z"/>
<path style="fill:#FFB34C;" d="M347.823,18.789H164.177c-4.43,14.129-18.587,22.002-34.682,33.213h253.01
	C366.41,40.792,352.254,32.919,347.823,18.789z"/>
<g>
	<path style="fill:#9E6134;" d="M362.614,27.891H149.386c-5.027,0-9.102-4.076-9.102-9.102s4.076-9.102,9.102-9.102h213.229
		c5.027,0,9.102,4.076,9.102,9.102S367.641,27.891,362.614,27.891z"/>
	<path style="fill:#9E6134;" d="M308.683,502.313H203.317c-5.027,0-9.102-4.076-9.102-9.102s4.076-9.102,9.102-9.102h105.365
		c5.027,0,9.102,4.076,9.102,9.102S313.709,502.313,308.683,502.313z"/>
</g>
<g>
</g>
<g>
</g>
<g>
</g>
<g>
</g>
<g>
</g>
<g>
</g>
<g>
</g>
<g>
</g>
<g>
</g>
<g>
</g>
<g>
</g>
<g>
</g>
<g>
</g>
<g>
</g>
<g>
</g>
</svg>
