<svg id="Layer_1" enable-background="new 0 0 512 512" height="512" viewBox="0 0 512 512" width="512" xmlns="http://www.w3.org/2000/svg"><g><path d="m215.456 204 24.544 36.816 24.544-36.816h50.667l-25.333-38 25.333-38h-50.667l-24.544-36.816-24.544 36.816h-50.667l25.333 38-25.333 38zm24.544 15.184-10.122-15.184h20.245zm52.789-27.184h-20.245l10.122-15.184zm0-52-10.122 15.184-10.123-15.184zm-52.789-27.184 10.122 15.184h-20.245zm-18.122 27.184h36.245l17.333 26-17.333 26h-36.245l-17.333-26zm-34.667 0h20.245l-10.122 15.184zm10.122 36.816 10.123 15.184h-20.245z"/><path d="m138 300h204v-268h-204zm192-12h-27.516l27.516-27.516zm0-244v27.516l-27.516-27.516zm-180 0h27.516l-27.516 27.516zm0 44.484 44.484-44.484h91.031l44.485 44.484v155.031l-44.484 44.485h-91.031l-44.485-44.484zm0 172 27.516 27.516h-27.516z"/><path d="m384 340v16h-26v-24h16v-332h-262c-20.953 0-38 17.047-38 38v320c0 20.953 17.047 38 38 38h26v40.485l30-30 30 30v-40.485h85.515l-30 30 26.001 26h-87.516v60h120.485l48-48h23.515v16h54v-140zm-266-328h244v308h-244zm-32 26c0-12.271 8.548-22.577 20-25.293v307.775c-7.667 1.222-14.58 4.737-20 9.83zm100 369.515-18-18-18 18v-43.515h36zm12-23.515v-20h106v-12h-192v12h26v20h-26c-14.337 0-26-11.663-26-26s11.663-26 26-26h234v24h-22.485l-28 28zm186 68h-28.485l-48 48h-103.515v-36h92.485l41.757-41.758-8.484-8.484-35.758 35.757-23.515-23.515 58-58h55.515zm42 16h-30v-116h30z"/></g></svg>