<?xml version="1.0" encoding="UTF-8"?>
<!DOCTYPE svg PUBLIC "-//W3C//DTD SVG 1.1//EN" "http://www.w3.org/Graphics/SVG/1.1/DTD/svg11.dtd">
<!-- Creator: CorelDRAW 2017 -->
<svg xmlns="http://www.w3.org/2000/svg" xml:space="preserve" width="1000px" height="1035px" version="1.1" style="shape-rendering:geometricPrecision; text-rendering:geometricPrecision; image-rendering:optimizeQuality; fill-rule:evenodd; clip-rule:evenodd"
viewBox="0 0 1000010 1035000"
 xmlns:xlink="http://www.w3.org/1999/xlink">
 <defs>
  <style type="text/css">
   <![CDATA[
    .str8 {stroke:#332F60;stroke-width:2150;stroke-miterlimit:22.9256}
    .str13 {stroke:#E48B76;stroke-width:2740;stroke-miterlimit:22.9256}
    .str0 {stroke:#C4C4C4;stroke-width:1290;stroke-miterlimit:22.9256}
    .str1 {stroke:#FEFEFE;stroke-width:1290;stroke-miterlimit:22.9256}
    .str7 {stroke:#883448;stroke-width:1120;stroke-miterlimit:22.9256}
    .str4 {stroke:#9D9E9E;stroke-width:4120;stroke-miterlimit:22.9256}
    .str3 {stroke:#9E99C4;stroke-width:4120;stroke-miterlimit:22.9256}
    .str6 {stroke:#009846;stroke-width:1020;stroke-miterlimit:22.9256}
    .str12 {stroke:#00A0E3;stroke-width:1020;stroke-miterlimit:22.9256}
    .str9 {stroke:#332F60;stroke-width:1020;stroke-miterlimit:22.9256}
    .str11 {stroke:#2B255A;stroke-width:6440;stroke-miterlimit:22.9256}
    .str2 {stroke:#9E99C4;stroke-width:6440;stroke-miterlimit:22.9256}
    .str5 {stroke:#D9DADA;stroke-width:6440;stroke-miterlimit:22.9256}
    .str10 {stroke:#332F60;stroke-width:960;stroke-miterlimit:22.9256}
    .fil0 {fill:none}
    .fil4 {fill:none;fill-rule:nonzero}
    .fil1 {fill:#FEFEFE}
    .fil3 {fill:#009846;fill-rule:nonzero}
    .fil9 {fill:#00A0E3;fill-rule:nonzero}
    .fil10 {fill:#272761;fill-rule:nonzero}
    .fil6 {fill:#332F60;fill-rule:nonzero}
    .fil8 {fill:#343877;fill-rule:nonzero}
    .fil5 {fill:#883448;fill-rule:nonzero}
    .fil11 {fill:#F0B368;fill-rule:nonzero}
    .fil7 {fill:#F2B865;fill-rule:nonzero}
    .fil2 {fill:#FEFEFE;fill-rule:nonzero}
   ]]>
  </style>
 </defs>
 <g id="Layer_x0020_1">
  <metadata id="CorelCorpID_0Corel-Layer"/>
  <g id="_2843691065264">
   <line class="fil0 str0" x1="912970" y1="58690" x2="524310" y2= "126640" />
   <line class="fil0 str0" x1="909310" y1="67000" x2="529270" y2= "133450" />
   <line class="fil0 str0" x1="905290" y1="75380" x2="532830" y2= "140500" />
   <line class="fil0 str0" x1="900820" y1="83840" x2="535380" y2= "147730" />
   <line class="fil0 str0" x1="895660" y1="92410" x2="537290" y2= "155080" />
   <line class="fil0 str0" x1="889520" y1="101160" x2="538880" y2= "162470" />
   <line class="fil0 str0" x1="881790" y1="110200" x2="540410" y2= "169880" />
   <line class="fil0 str0" x1="871000" y1="119760" x2="542180" y2= "177250" />
   <line class="fil0 str0" x1="849430" y1="131210" x2="544470" y2= "184530" />
   <line class="fil0 str0" x1="633840" y1="640" x2="418600" y2= "38270" />
   <line class="fil0 str0" x1="677750" y1="640" x2="419360" y2= "45820" />
   <line class="fil0 str0" x1="721660" y1="640" x2="421050" y2= "53200" />
   <line class="fil0 str0" x1="765560" y1="640" x2="423740" y2= "60400" />
   <line class="fil0 str0" x1="809460" y1="640" x2="427620" y2= "67410" />
   <line class="fil0 str0" x1="853370" y1="640" x2="432950" y2= "74150" />
   <line class="fil0 str0" x1="897280" y1="640" x2="439980" y2= "80600" />
   <line class="fil0 str0" x1="926670" y1="3180" x2="449000" y2= "86690" />
   <line class="fil0 str0" x1="926210" y1="10930" x2="460130" y2= "92420" />
   <line class="fil0 str0" x1="925190" y1="18790" x2="472990" y2= "97850" />
   <line class="fil0 str0" x1="923640" y1="26740" x2="486450" y2= "103170" />
   <line class="fil0 str0" x1="921570" y1="34780" x2="499040" y2= "108650" />
   <line class="fil0 str0" x1="919020" y1="42900" x2="509720" y2= "114460" />
   <line class="fil0 str0" x1="916050" y1="51090" x2="518240" y2= "120650" />
   <line class="fil0 str0" x1="460660" y1="640" x2="424400" y2= "6980" />
   <line class="fil0 str0" x1="504570" y1="640" x2="421470" y2= "15170" />
   <line class="fil0 str0" x1="548480" y1="640" x2="419610" y2= "23170" />
   <line class="fil0 str0" x1="592380" y1="640" x2="418680" y2= "31010" />
   <line class="fil0 str0" x1="712520" y1="200770" x2="591120" y2= "222000" />
   <line class="fil0 str0" x1="698240" y1="210950" x2="613210" y2= "225810" />
   <line class="fil0 str0" x1="776380" y1="151650" x2="547650" y2= "191650" />
   <line class="fil0 str0" x1="758100" y1="162520" x2="552090" y2= "198550" />
   <line class="fil0 str0" x1="745410" y1="172420" x2="558110" y2= "205170" />
   <line class="fil0 str0" x1="734320" y1="182040" x2="566170" y2= "211440" />
   <line class="fil0 str0" x1="723500" y1="191610" x2="577040" y2= "217210" />
  </g>
  <g id="_2843691073200">
   <line class="fil0 str0" x1="879640" y1="760490" x2="846470" y2= "766280" />
   <line class="fil0 str0" x1="892570" y1="765900" x2="839970" y2= "775090" />
   <line class="fil0 str0" x1="903680" y1="771640" x2="832820" y2= "784020" />
   <line class="fil0 str0" x1="910900" y1="778050" x2="821320" y2= "793720" />
   <line class="fil0 str0" x1="915100" y1="784990" x2="817160" y2= "802120" />
   <line class="fil0 str0" x1="917470" y1="792250" x2="818560" y2= "809550" />
   <line class="fil0 str0" x1="918560" y1="799740" x2="823820" y2= "816300" />
   <line class="fil0 str0" x1="918690" y1="807390" x2="832670" y2= "822440" />
   <line class="fil0 str0" x1="918190" y1="815150" x2="843160" y2= "828270" />
   <line class="fil0 str0" x1="916860" y1="823070" x2="855420" y2= "833810" />
   <line class="fil0 str0" x1="911980" y1="831590" x2="871660" y2= "838650" />
   <line class="fil0 str0" x1="867530" y1="755550" x2="855410" y2= "757670" />
  </g>
  <line class="fil0 str1" x1="450800" y1="448740" x2="399240" y2= "457770" />
  <line class="fil0 str1" x1="467670" y1="453470" x2="394280" y2= "466310" />
  <rect class="fil1" x="859440" y="804110" width="99220" height="34470"/>
  <rect class="fil1" x="827610" y="819400" width="152960" height="65570"/>
  <line class="fil0 str1" x1="473340" y1="460160" x2="392240" y2= "474340" />
  <line class="fil0 str1" x1="476110" y1="467360" x2="391640" y2= "482120" />
  <line class="fil0 str1" x1="477380" y1="474800" x2="391900" y2= "489750" />
  <g id="_2843691080976">
   <path class="fil0 str0" d="M549440 622360l-82460 14410m-71390 12490l-72090 12600m-121100 21180l-129080 22560"/>
   <g>
    <line class="fil0 str0" x1="478660" y1="741780" x2="326730" y2= "768340" />
    <line class="fil0 str0" x1="475530" y1="750010" x2="336200" y2= "774360" />
    <line class="fil0 str0" x1="472750" y1="758170" x2="342580" y2= "780920" />
    <line class="fil0 str0" x1="470130" y1="766300" x2="347570" y2= "787730" />
    <line class="fil0 str0" x1="467560" y1="774430" x2="351690" y2= "794690" />
    <line class="fil0 str0" x1="464860" y1="782570" x2="355210" y2= "801740" />
    <line class="fil0 str0" x1="461880" y1="790770" x2="358450" y2= "808850" />
    <line class="fil0 str0" x1="458440" y1="799050" x2="361840" y2= "815940" />
    <line class="fil0 str0" x1="454300" y1="807460" x2="365690" y2= "822940" />
    <line class="fil0 str0" x1="449140" y1="816030" x2="370440" y2= "829790" />
    <line class="fil0 str0" x1="442300" y1="824900" x2="376890" y2= "836340" />
    <line class="fil0 str0" x1="431970" y1="834380" x2="387120" y2= "842230" />
    <path class="fil0 str0" d="M546620 630540l-93750 16380m-48950 8560l-113920 19910m-62750 10980l-159370 27860"/>
    <line class="fil0 str0" x1="543130" y1="638820" x2="64770" y2= "722460" />
    <line class="fil0 str0" x1="538960" y1="647220" x2="63480" y2= "730360" />
    <line class="fil0 str0" x1="534080" y1="655750" x2="63800" y2= "737970" />
    <line class="fil0 str0" x1="528510" y1="664410" x2="65610" y2= "745340" />
    <line class="fil0 str0" x1="522440" y1="673140" x2="68850" y2= "752450" />
    <line class="fil0 str0" x1="516040" y1="681930" x2="73610" y2= "759290" />
    <line class="fil0 str0" x1="509520" y1="690750" x2="80050" y2= "765850" />
    <path class="fil0 str0" d="M503100 699550l-263170 46010m-40680 7120l-110630 19340"/>
    <path class="fil0 str0" d="M497010 708290l-246780 43140m-71500 12510l-78130 13660"/>
    <path class="fil0 str0" d="M491390 716950l-233330 40790m-111690 19540l-20010 3490"/>
    <line class="fil0 str0" x1="486400" y1="725500" x2="265920" y2= "764050" />
    <line class="fil0 str0" x1="482090" y1="733930" x2="276530" y2= "769870" />
    <line class="fil0 str0" x1="468730" y1="529630" x2="333510" y2= "553260" />
    <line class="fil0 str0" x1="462860" y1="538330" x2="326460" y2= "562180" />
    <line class="fil0 str0" x1="454800" y1="547420" x2="322040" y2= "570620" />
    <line class="fil0 str0" x1="444450" y1="556900" x2="319620" y2= "578730" />
    <line class="fil0 str0" x1="432440" y1="566670" x2="318900" y2= "586530" />
    <line class="fil0 str0" x1="420290" y1="576480" x2="319680" y2= "594070" />
    <path class="fil0 str0" d="M540120 563210l-7000 1220m-123510 21590l-87990 15380"/>
    <path class="fil0 str0" d="M549020 569320l-29640 5180m-118260 20690l-76740 13410"/>
    <path class="fil0 str0" d="M551480 576570l-39130 6840m-117430 20540l-67310 11760"/>
    <path class="fil0 str0" d="M553020 583980l-46410 8110m-115830 20250l-59850 10470"/>
    <path class="fil0 str0" d="M553750 591520l-52910 9260m-112400 19650l-54440 9520"/>
    <path class="fil0 str0" d="M553710 599210l-59510 10410m-106390 18600l-51350 8970"/>
    <path class="fil0 str0" d="M552920 607020l-66490 11630m-97700 17080l-50770 8880m-184850 32320l-53360 9330"/>
    <path class="fil0 str0" d="M551430 614960l-74220 12980m-85900 15010l-53340 9330m-154980 27100l-101490 17740"/>
    <line class="fil0 str0" x1="477760" y1="482420" x2="392690" y2= "497290" />
    <line class="fil0 str0" x1="477740" y1="490090" x2="393650" y2= "504800" />
    <line class="fil0 str0" x1="477450" y1="497820" x2="393850" y2= "512440" />
    <line class="fil0 str0" x1="476680" y1="505630" x2="389830" y2= "520820" />
    <line class="fil0 str0" x1="475180" y1="513570" x2="364970" y2= "532840" />
    <line class="fil0 str0" x1="472580" y1="521700" x2="344290" y2= "544130" />
   </g>
  </g>
  <path class="fil0 str2" d="M642740 348790l-39830 71870c-2480,4480 -6640,7780 -11560,9190l-103000 29550c-3420,980 -6500,2900 -8900,5520l-19610 21430c-8740,9560 -5770,24850 5930,30430 9950,4750 13900,16870 8660,26580l-91490 169260c-6300,11670 780,26070 13860,28210l257910 42160c7230,1180 13150,6340 15320,13320l18910 60940c1990,6420 500,13410 -3940,18450l-68860 78350 -64060 78920"/>
  <polyline class="fil0 str2" points="10120,587130 158180,573020 302600,385840 10230,196690 "/>
  <line class="fil0 str3" x1="10230" y1="305460" x2="121950" y2= "268970" />
  <polyline class="fil0 str2" points="370060,225260 642740,348790 683280,225260 "/>
  <polyline class="fil0 str4" points="773740,1032970 771950,1031010 771950,940750 732990,890390 692140,867580 "/>
  <path class="fil0 str5" d="M773850 161480l31040 0c20910,0 39190,14080 44550,34290l58130 219440c2360,8920 -1810,18280 -10020,22500 -9200,4700 -13160,15730 -9090,25220l29880 69440c3350,7810 1300,16900 -5090,22510l-69780 61230c-8770,7690 -8920,21300 -350,29190l41900 38560c4760,4370 7040,10810 6130,17210l-9030 63180"/>
  <polygon class="fil2 str6" points="51870,589820 87970,589820 87970,566530 51870,566530 "/>
  <path class="fil3" d="M62230 576860l-780 0 3610 -3610 0 -730 -5760 0 0 730 4800 0 -3590 3630 0 660 1470 0c1830,0 2640,740 2640,2390 0,1710 -810,2500 -2640,2500l-2680 0 0 730 2930 0c2270,0 3290,-1050 3290,-3260 0,-2040 -1020,-3040 -3290,-3040l0 0zm8640 -430c-410,0 -840,70 -1200,170l3280 -4080 -930 0 -3610 4470c-630,780 -1100,1590 -1100,2780 0,2130 1310,3480 3450,3480 2130,0 3440,-1350 3440,-3480 0,-2060 -1310,-3340 -3330,-3340zm-110 6120c-1560,0 -2570,-1080 -2570,-2780 0,-1690 1060,-2770 2570,-2770 1560,0 2550,1080 2550,2770 0,1700 -990,2780 -2550,2780zm6580 610l940 0 3670 -9910 0 -730 -6010 0 0 730 5070 0 -3670 9910z"/>
  <polygon class="fil2" points="727870,893730 749990,930290 769900,918240 747790,881670 "/>
  <polygon class="fil4 str7" points="727870,893730 749990,930290 769900,918240 747790,881670 "/>
  <path class="fil5" d="M743020 893700l-410 -680 4960 1220 630 -380 -2990 -4920 -620 370 2480 4110 -4960 -1190 -560 330 750 1260c960,1570 740,2650 -670,3510 -1470,880 -2560,600 -3510,-980l-1380 -2280 -630 370 1520 2510c1180,1950 2590,2280 4490,1130 1760,-1050 2070,-2440 900,-4380l0 0zm4850 7170c-220,-370 -510,-690 -790,-940l5200 690 -480 -800 -5690 -780c-1000,-130 -1930,-110 -2950,500 -1820,1110 -2310,2930 -1200,4750 1110,1830 2940,2250 4760,1150 1760,-1070 2190,-2850 1150,-4580l0 10zm-5310 3060c-800,-1340 -400,-2740 1060,-3620 1440,-880 2910,-540 3690,750 810,1340 390,2740 -1040,3620 -1460,880 -2900,590 -3710,-750zm13120 2120c-1110,-1820 -2940,-2250 -4760,-1140 -1760,1060 -2190,2840 -1150,4570 220,370 500,690 780,930l-5190 -680 480 800 5690 770c1000,130 1940,120 2950,-500 1820,-1100 2310,-2920 1200,-4750l0 0zm-5350 3240c-810,-1340 -400,-2760 1050,-3620 1450,-880 2890,-590 3700,740 810,1350 400,2750 -1060,3630 -1440,880 -2910,530 -3690,-750l0 0zm6490 7950c850,760 1840,880 2770,310 1410,-850 1620,-2310 620,-3960 -990,-1650 -2400,-2150 -3810,-1300 -930,570 -1280,1500 -1000,2610 -1090,-1060 -2390,-1210 -3720,-400 -1660,1000 -1910,2680 -700,4680 1200,1980 2810,2550 4460,1550 1340,-810 1800,-2040 1380,-3490l0 0zm-30 -4220c1110,-670 2160,-350 2900,880 750,1220 540,2300 -580,2970 -1010,620 -2000,270 -2750,-950 -740,-1230 -590,-2280 430,-2900l0 0zm-5260 5830c-910,-1510 -680,-2810 640,-3610 1410,-850 2710,-480 3620,1020 910,1500 620,2820 -770,3680 -1330,800 -2590,400 -3490,-1090l0 0z"/>
  <polygon class="fil2 str7" points="169440,552590 212170,552590 212170,529320 169440,529320 "/>
  <path class="fil5" d="M178620 539650l-780 0 3610 -3620 0 -720 -5760 0 0 720 4790 0 -3590 3640 0 650 1470 0c1840,0 2650,750 2650,2390 0,1710 -810,2510 -2650,2510l-2670 0 0 730 2930 0c2270,0 3290,-1050 3290,-3260 0,-2050 -1020,-3040 -3290,-3040l0 0zm8640 -440c-410,0 -840,80 -1200,180l3280 -4080 -930 0 -3610 4460c-630,790 -1100,1600 -1100,2790 0,2120 1300,3470 3450,3470 2130,0 3440,-1350 3440,-3470 0,-2060 -1310,-3350 -3330,-3350zm-110 6130c-1570,0 -2560,-1090 -2560,-2780 0,-1690 1050,-2780 2560,-2780 1560,0 2550,1090 2550,2780 0,1690 -990,2780 -2550,2780zm6590 610l930 0 3670 -9920 0 -720 -6010 0 0 720 5070 0 -3660 9920 0 0zm9810 -6740c-420,0 -850,80 -1210,180l3280 -4080 -930 0 -3610 4460c-620,790 -1100,1600 -1100,2790 0,2120 1320,3470 3450,3470 2140,0 3440,-1350 3440,-3470 0,-2060 -1300,-3350 -3320,-3350zm-120 6130c-1560,0 -2560,-1090 -2560,-2780 0,-1690 1060,-2780 2560,-2780 1560,0 2550,1090 2550,2780 0,1690 -990,2780 -2550,2780z"/>
  <polygon class="fil2 str7" points="72680,253770 115420,253770 115420,230480 72680,230480 "/>
  <path class="fil5" d="M80380 240820l-780 0 3610 -3620 0 -730 -5760 0 0 730 4790 0 -3590 3640 0 650 1480 0c1830,0 2640,750 2640,2390 0,1710 -810,2500 -2640,2500l-2680 0 0 740 2930 0c2270,0 3300,-1060 3300,-3260 0,-2050 -1030,-3040 -3300,-3040l0 0zm10330 380c1080,-330 1700,-1130 1700,-2220 0,-1640 -1140,-2580 -3070,-2580 -1930,0 -3090,940 -3090,2580 0,1090 630,1890 1720,2220 -1470,380 -2260,1420 -2260,2980 0,1930 1300,3010 3630,3010 2310,0 3640,-1080 3640,-3010 0,-1560 -810,-2600 -2270,-2980zm-3630 -2160c0,-1300 820,-2040 2260,-2040 1430,0 2240,740 2240,2040 0,1190 -810,1850 -2240,1850 -1440,0 -2260,-660 -2260,-1850zm2260 7510c-1760,0 -2760,-870 -2760,-2410 0,-1640 1000,-2580 2760,-2580 1750,0 2740,940 2740,2580 0,1540 -1000,2410 -2740,2410zm8930 -6180c-420,0 -840,90 -1210,190l3280 -4090 -930 0 -3610 4470c-630,790 -1090,1600 -1090,2790 0,2120 1310,3470 3440,3470 2140,0 3450,-1350 3450,-3470 0,-2060 -1310,-3360 -3330,-3360zm-120 6140c-1560,0 -2550,-1090 -2550,-2780 0,-1690 1050,-2780 2550,-2780 1560,0 2560,1090 2560,2780 0,1690 -1000,2780 -2560,2780zm8650 -6140c-430,0 -840,90 -1200,190l3280 -4090 -940 0 -3600 4470c-640,790 -1110,1600 -1110,2790 0,2120 1310,3470 3440,3470 2150,0 3450,-1350 3450,-3470 0,-2060 -1310,-3360 -3320,-3360l0 0zm-130 6140c-1560,0 -2550,-1090 -2550,-2780 0,-1690 1050,-2780 2550,-2780 1580,0 2570,1090 2570,2780 0,1690 -990,2780 -2570,2780z"/>
  <polygon class="fil2" points="585630,1001440 618350,973970 603370,956140 570650,983620 "/>
  <polygon class="fil4 str7" points="585630,1001440 618350,973970 603370,956140 570650,983620 "/>
  <path class="fil5" d="M583370 986360l-600 500 430 -5090 -460 -560 -4410 3700 470 560 3670 -3080 -420 5090 430 500 1130 -950c1390,-1180 2500,-1120 3550,130 1100,1310 1000,2440 -410,3620l-2050 1730 470 550 2240 -1880c1740,-1470 1850,-2930 440,-4610 -1330,-1580 -2740,-1680 -4480,-210l0 0zm6330 -5900c-320,260 -590,590 -800,910l-120 -5240 -720 600 120 5740c20,1010 180,1940 940,2850 1380,1620 3250,1820 4880,440 1640,-1380 1770,-3250 400,-4880 -1320,-1580 -3150,-1720 -4700,-420zm3850 4760c-1190,1020 -2650,820 -3750,-480 -1080,-1290 -970,-2800 180,-3760 1200,-1010 2660,-820 3740,470 1090,1300 1030,2770 -170,3770zm5440 -3760l710 -600 -3570 -9960 -460 -550 -4600 3850 470 560 3880 -3260 3570 9960 0 0zm1020 -14890c-1740,1460 -1960,3230 -380,5110l2230 2660c1600,1890 3380,1990 5110,530 1760,-1480 1970,-3240 380,-5140l-2240 -2650c-1580,-1890 -3350,-1980 -5100,-510l0 0zm210 4420c-1210,-1450 -1040,-2810 250,-3880 1260,-1070 2650,-1020 3860,430l2420 2890c1220,1460 1040,2830 -220,3900 -1280,1070 -2660,990 -3880,-460l-2430 -2880z"/>
  <polygon class="fil2 str7" points="523940,778320 566670,778320 566670,755040 523940,755040 "/>
  <path class="fil5" d="M533790 765370l-790 0 3610 -3610 0 -740 -5750 0 0 740 4790 0 -3590 3630 0 650 1470 0c1840,0 2650,750 2650,2390 0,1720 -810,2520 -2650,2520l-2670 0 0 720 2930 0c2260,0 3290,-1040 3290,-3260 0,-2050 -1030,-3040 -3290,-3040zm8660 -4350l-370 0 -3470 2870 420 560 2750 -2270 0 9490 900 0 0 -10400c0,-160 -60,-250 -220,-250l-10 0zm5510 9930l-2170 0 0 720 2350 0c2410,0 3390,-970 3390,-3240 0,-2300 -980,-3280 -3360,-3280l-1600 0 0 -3390 4780 0 0 -740 -5620 0 0 4840 2230 0c1940,0 2640,770 2640,2540 0,1770 -700,2550 -2640,2550l0 0zm6660 720l940 0 3670 -9910 0 -740 -6010 0 0 740 5070 0 -3670 9910z"/>
  <polyline class="fil4 str2" points="302600,385840 357390,396610 409960,374430 432760,386780 "/>
  <polygon class="fil2 str6" points="302600,402550 338710,402550 338710,379260 302600,379260 "/>
  <path class="fil3" d="M313490 389600l-790 0 3610 -3610 0 -740 -5750 0 0 740 4790 0 -3590 3630 0 650 1470 0c1840,0 2650,750 2650,2390 0,1720 -810,2500 -2650,2500l-2670 0 0 740 2930 0c2260,0 3280,-1050 3280,-3260 0,-2050 -1020,-3040 -3280,-3040l0 0zm6570 6300l950 0 3670 -9910 0 -740 -6010 0 0 740 5070 0 -3680 9910zm9110 -740l-2180 0 0 740 2350 0c2410,0 3390,-970 3390,-3240 0,-2300 -980,-3290 -3360,-3290l-1590 0 0 -3380 4770 0 0 -740 -5610 0 0 4830 2230 0c1930,0 2630,780 2630,2550 0,1760 -700,2530 -2630,2530z"/>
  <path class="fil4 str2" d="M838330 630520l-30290 0c-7320,0 -14160,3630 -18250,9690l-31650 46850c-1540,2290 -2650,4860 -3250,7570l-3610 16290c-3330,15030 -20650,22090 -33540,13680l-2330 -1530c-3420,-2220 -7370,-3460 -11430,-3570l0 0c-9820,-270 -18630,5990 -21600,15350l-15890 50060"/>
  <polyline class="fil4 str2" points="158180,573020 214870,694890 249710,699870 291200,748810 "/>
  <path class="fil6" d="M784940 709200l0 1340 1930 0 0 4660c0,1940 -570,3020 -2210,3470l-980 260 -1510 -9180c-50,-390 -240,-550 -560,-550l-2790 0 0 1340 1830 0 1450 8810 -3170 840 320 1310 5560 -1470c2620,-680 3750,-2090 3750,-4770l0 -6060 -3620 0 0 0zm9650 11420l0 -11420 -3420 0 0 1340 1740 0 0 10080 1680 0zm13020 -11420l-9500 0 0 1340 7790 0 0 6090c0,1840 -590,2660 -2300,2660l-1590 0 0 1330 1900 0c2580,0 3700,-1250 3700,-3940l0 -7480zm-9380 4780l0 10460 1690 0 0 -10460 -1690 0zm12290 -4780l0 1340 1710 0 0 8750 -2290 0 0 1330 3420 0c430,0 570,-140 570,-520l0 -9560 5580 0 0 10080 1690 0 0 -11420 -10680 0z"/>
  <path class="fil6" d="M126990 733380l-2600 0 0 1340 1440 0 0 13900 1690 0 0 -14640c0,-400 -150,-600 -530,-600l0 0zm6810 11430l0 -11430 -3420 0 0 1340 1740 0 0 10090 1680 0zm6120 -5070l0 -6360 -3350 0 0 1340 1660 0 0 5020 1690 0zm12190 -1790l0 -4570 -3830 0 0 1280 2240 0 0 3070c0,1130 -380,1670 -1150,1670 -490,0 -1000,-180 -1370,-680l0 30 -4280 -5370 -1750 0 8150 10100 -6960 0 0 1330 8790 0 0 -1080 -2540 -3200c170,20 360,30 530,30 1330,0 2170,-840 2170,-2610l0 0zm8450 -4570l0 1340 1910 0 0 4670c0,1940 -550,3020 -2200,3470l-970 260 -1510 -9180c-50,-400 -250,-560 -560,-560l-2790 0 0 1340 1830 0 1450 8820 -3170 840 320 1300 5560 -1460c2610,-680 3750,-2090 3750,-4780l0 -6060 -3620 0 0 0zm17790 11430l1700 0 0 -7480c0,-2760 -1230,-3950 -4030,-3950l-3940 0 0 1340 3660 0c1830,0 2610,830 2610,2800l0 7290 0 0zm9990 -11430l-5170 0 0 6520 4590 0 0 -1230 -3000 0 0 -3950 3340 0c1730,0 2500,760 2500,2530l0 3660c0,1780 -770,2570 -2500,2570l-4910 0 0 1330 5150 0c2750,0 3950,-1180 3950,-3920l0 -3620c0,-2700 -1200,-3890 -3950,-3890l0 0zm14970 0l-8530 0 0 1340 6740 0 0 5140c0,2530 -860,3620 -3090,3620l-3650 0 0 1330 4220 0c3070,0 4310,-1370 4310,-4530l0 -6900 0 0z"/>
  <path class="fil6" d="M308620 691090l1710 0 0 -7480c0,-2760 -1230,-3940 -4030,-3940l-3950 0 0 1330 3660 0c1830,0 2610,840 2610,2810l0 7280 0 0zm10250 -11420l-6530 0 0 1330 2750 0c-820,340 -1430,1680 -1040,3860l1150 6230 1680 0 -1210 -6470c-440,-2370 280,-3620 1560,-3620l1650 0 0 -1330 -10 0zm7720 0l0 1330 1930 0 0 4670c0,1930 -570,3020 -2210,3460l-980 270 -1500 -9170c-60,-410 -250,-560 -570,-560l-2780 0 0 1330 1820 0 1460 8820 -3170 830 310 1320 5570 -1460c2610,-690 3740,-2100 3740,-4790l0 -6050 -3620 0 0 0zm8220 11420l1740 0 4210 -10090 0 -1330 -6530 0 0 -1910 -1630 0 0 3240 6380 0 -4170 10090zm18210 0l-2910 -3920c330,70 740,110 1120,60 1220,-180 1960,-1070 1960,-2560l0 -5000 -3990 0 0 1250 2430 0 0 3580c0,1050 -440,1720 -1380,1720 -570,0 -990,-300 -1330,-780l-4170 -5770 -1750 0 2930 3920c-360,-70 -770,-120 -1140,-50 -1220,160 -1960,1060 -1960,2540l0 5010 4000 0 0 -1250 -2430 0 0 -3580c0,-1050 430,-1720 1370,-1720 560,0 990,310 1340,790l4150 5760 1760 0z"/>
  <path class="fil6" d="M925360 728980l-9390 0 0 1340 6100 0 0 10100 1690 0 0 -10100 1600 0 0 -1340 0 0zm16420 11440l1760 0 4200 -10100 0 -1340 -6540 0 0 -1900 -1620 0 0 3240 6380 0 -4180 10100 0 0zm18220 0l-2920 -3940c330,90 760,120 1130,70 1220,-180 1950,-1070 1950,-2560l0 -5010 -3990 0 0 1270 2430 0 0 3580c0,1040 -430,1710 -1380,1710 -550,0 -990,-310 -1330,-780l-4160 -5780 -1760 0 2930 3930c-340,-80 -760,-110 -1140,-60 -1220,170 -1950,1070 -1950,2560l0 5010 3990 0 0 -1270 -2430 0 0 -3580c0,-1040 430,-1710 1380,-1710 550,0 990,310 1330,780l4160 5780 1760 0 0 0zm14280 0l1710 0 0 -7480c0,-2780 -1230,-3960 -4030,-3960l-3950 0 0 1340 3670 0c1820,0 2600,840 2600,2800l0 7300 0 0zm9990 -11440l-5160 0 0 6520 4580 0 0 -1240 -3000 0 0 -3940 3340 0c1730,0 2500,760 2500,2530l0 3660c0,1780 -770,2570 -2500,2570l-4910 0 0 1340 5150 0c2750,0 3960,-1190 3960,-3940l0 -3610c0,-2710 -1210,-3890 -3960,-3890l0 0zm14970 0l-8530 0 0 1340 6740 0 0 5140c0,2530 -850,3620 -3090,3620l-3650 0 0 1340 4220 0c3070,0 4310,-1380 4310,-4550l0 -6890 0 0z"/>
  <path class="fil6" d="M402480 718950l0 1330 1710 0 0 8770 -2300 0 0 1330 3440 0c410,0 560,-150 560,-540l0 -9560 5570 0 0 10100 1710 0 0 -11430 -10690 0 0 0zm19530 11430l1700 0 0 -7480c0,-2770 -1230,-3950 -4040,-3950l-3930 0 0 1330 3650 0c1840,0 2620,840 2620,2810l0 7290 0 0zm9980 -11430l-5160 0 0 6520 4570 0 0 -1240 -2980 0 0 -3950 3340 0c1720,0 2500,770 2500,2540l0 3650c0,1790 -780,2580 -2500,2580l-4910 0 0 1330 5140 0c2760,0 3960,-1190 3960,-3930l0 -3610c0,-2710 -1200,-3890 -3960,-3890zm17000 11430l-2930 -3930c340,80 760,110 1130,60 1230,-170 1970,-1060 1970,-2550l0 -5010 -4000 0 0 1260 2430 0 0 3580c0,1050 -430,1720 -1370,1720 -570,0 -1010,-310 -1350,-790l-4160 -5770 -1740 0 2910 3920c-340,-70 -750,-100 -1120,-50 -1230,160 -1970,1060 -1970,2550l0 5010 3990 0 0 -1260 -2420 0 0 -3580c0,-1050 430,-1720 1370,-1720 570,0 1000,310 1340,790l4160 5770 1760 0 0 0z"/>
  <path class="fil6" d="M787040 768720l-9390 0 0 3570 1180 0 0 10720 13140 0 0 -9590c0,-3260 -1480,-4700 -4930,-4700l0 0zm460 10720l-4200 0 0 -7150 2430 0c1220,0 1770,600 1770,1940l0 5210 0 0zm12540 -2070l0 -8650 -6110 0 0 3570 1510 0 0 5080 4600 0 0 0zm13890 -8650l-11750 0 0 3570 5660 0 0 10720 4580 0 0 -10720 1510 0 0 -3570zm16030 0l-13370 0 0 3570 8780 0 0 5630c0,1040 -350,1520 -1530,1520l-1290 0 0 3570 2230 0c3440,0 5180,-1670 5180,-4930l0 -9360 0 0zm-13370 5980l0 13070 4590 0 0 -13070 -4590 0zm22310 8310l0 -14290 -6290 0 0 3570 1700 0 0 10720 4590 0zm6290 -14260l-3170 -30 0 3570 1140 0c610,0 850,270 850,960l0 6190 -2500 0 0 3570 7100 0 0 -10160c0,-2980 -930,-4080 -3420,-4100l0 0z"/>
  <path class="fil4 str8" d="M874190 751970c0,4350 -3520,7860 -7860,7860 -4340,0 -7870,-3510 -7870,-7860 0,-4340 3530,-7860 7870,-7860 4340,0 7860,3520 7860,7860z"/>
  <line class="fil4 str8" x1="866330" y1="759830" x2="866330" y2= "772330" />
  <path class="fil4 str9" d="M989200 697410c0,2730 -2210,4940 -4940,4940 -2740,0 -4950,-2210 -4950,-4940 0,-2730 2210,-4950 4950,-4950 2730,0 4940,2220 4940,4950z"/>
  <line class="fil4 str9" x1="984260" y1="702350" x2="984260" y2= "710210" />
  <path class="fil4 str9" d="M834540 702600c0,2720 -2220,4940 -4950,4940 -2730,0 -4940,-2220 -4940,-4940 0,-2730 2210,-4940 4940,-4940 2730,0 4950,2210 4950,4940z"/>
  <line class="fil4 str9" x1="829590" y1="707540" x2="829590" y2= "715400" />
  <path class="fil4 str9" d="M435810 697520c0,2730 -2210,4950 -4940,4950 -2730,0 -4950,-2220 -4950,-4950 0,-2730 2220,-4930 4950,-4930 2730,0 4940,2200 4940,4930z"/>
  <line class="fil4 str9" x1="430870" y1="702470" x2="430870" y2= "710330" />
  <path class="fil4 str9" d="M331010 657980c0,2730 -2210,4950 -4950,4950 -2730,0 -4940,-2220 -4940,-4950 0,-2730 2210,-4940 4940,-4940 2740,0 4950,2210 4950,4940z"/>
  <line class="fil4 str9" x1="326060" y1="662930" x2="326060" y2= "670780" />
  <path class="fil4 str9" d="M224690 731100c0,2730 -2220,4940 -4940,4940 -2730,0 -4940,-2210 -4940,-4940 0,-2730 2210,-4940 4940,-4940 2720,0 4940,2210 4940,4940z"/>
  <line class="fil4 str9" x1="219750" y1="736040" x2="219750" y2= "743900" />
  <polygon class="fil2 str6" points="192310,660920 228410,660920 228410,637630 192310,637630 "/>
  <path class="fil3" d="M202660 647970l-770 0 3610 -3610 0 -740 -5760 0 0 740 4800 0 -3590 3630 0 650 1460 0c1840,0 2650,750 2650,2390 0,1720 -810,2500 -2650,2500l-2670 0 0 740 2920 0c2280,0 3300,-1050 3300,-3260 0,-2050 -1020,-3040 -3300,-3040l0 0zm8650 -440c-410,0 -840,80 -1200,190l3280 -4100 -930 0 -3610 4470c-630,790 -1100,1600 -1100,2790 0,2130 1310,3470 3450,3470 2130,0 3440,-1340 3440,-3470 0,-2050 -1310,-3350 -3330,-3350zm-110 6130c-1570,0 -2570,-1090 -2570,-2780 0,-1690 1060,-2780 2570,-2780 1560,0 2550,1090 2550,2780 0,1690 -990,2780 -2550,2780zm6580 610l940 0 3660 -9910 0 -740 -6000 0 0 740 5070 0 -3670 9910z"/>
  <path class="fil6" d="M867880 617120l-2610 0 0 1320 1440 0 0 13920 1700 0 0 -14650c0,-410 -160,-590 -530,-590zm6790 11420l0 -11420 -3410 0 0 1320 1740 0 0 10100 1670 0 0 0zm6130 -5060l0 -6360 -3350 0 0 1320 1650 0 0 5040 1700 0zm11660 -6360l-9400 0 0 1320 6110 0 0 10100 1680 0 0 -10100 1610 0 0 -1320 0 0zm5550 11420l0 -11420 -3410 0 0 1320 1740 0 0 10100 1670 0 0 0zm8860 0l1690 0 0 -7480c0,-2760 -1230,-3940 -4030,-3940l-3930 0 0 1320 3650 0c1820,0 2620,840 2620,2810l0 7290 0 0zm14340 -11420l-9410 0 0 1320 7720 0 0 10100 1690 0 0 -11420 0 0zm-9340 4470l0 6950 1700 0 0 -6950 -1700 0z"/>
  <path class="fil6" d="M874080 641110l-8240 0 0 2280 5310 0 0 6830 2930 0 0 -9110zm-8240 3660l0 5450 2930 0 0 -5450 -2930 0zm14750 -3660l0 2280 860 0 0 2810c0,1030 -300,1320 -1100,1550l-240 60 -710 -5820c-70,-610 -370,-880 -830,-880l-2730 0 0 2270 940 0 630 5210 -1750 490 520 2230 4430 -1220c2440,-660 3770,-1470 3770,-3820l0 -5160 -3790 0 0 0zm9180 5510l0 -5510 -3900 0 0 2280 960 0 0 3230 2940 0 0 0zm1500 -5510l0 2280 800 0 0 3130c0,2790 1290,3790 4170,3790 2910,0 4180,-1000 4180,-3790l0 -5410 -9150 0zm6220 5370c0,1110 -390,1540 -1250,1540 -840,0 -1230,-430 -1230,-1540l0 -3090 2480 0 0 3090zm6830 -5360l-2030 -10 0 2280 740 0c390,0 540,160 540,610l0 3950 -1600 0 0 2270 4530 0 0 -6480c0,-1910 -590,-2600 -2180,-2620l0 0zm8540 -1230l-510 4560 1890 0 930 -4560 -2310 0zm12340 1220l-8550 0 0 2280 5610 0 0 3580c0,680 -230,980 -970,980l-830 0 0 2270 1430 0c2190,0 3310,-1050 3310,-3140l0 -5970 0 0zm-8550 3820l0 8350 2930 0 0 -8350 -2930 0zm17590 -3820l-7500 0 0 2280 3610 0 0 6830 2930 0 0 -6830 960 0 0 -2280z"/>
  <path class="fil6" d="M947430 646160l-810 0 0 -6570 -3100 0c-500,0 -890,130 -1080,520l-3100 6240 0 1930 4440 0 -10 1940 2850 0 0 -1940 810 0 0 -2120zm-5140 0l1500 -3350 -10 3350 -1490 0 0 0z"/>
  <path class="fil4 str9" d="M937800 615740c0,2730 -2220,4950 -4950,4950 -2720,0 -4930,-2220 -4930,-4950 0,-2730 2210,-4940 4930,-4940 2730,0 4950,2210 4950,4940z"/>
  <line class="fil4 str9" x1="932860" y1="620690" x2="932860" y2= "628540" />
  <path class="fil6" d="M74300 623480l0 -5850c0,-1890 -740,-2570 -2720,-2570l-3850 0 0 700 3680 0c1480,0 2000,500 2000,1880l0 5840 -5680 0 0 700 7830 0 0 -700 -1260 0 0 0zm4410 -3470l0 -4950 -2300 0 0 700 1420 0 0 4250 880 0 0 0zm8750 3470l0 -5850c0,-1890 -730,-2570 -2720,-2570l-3840 0 0 700 3680 0c1480,0 2010,500 2010,1880l0 5840 -5690 0 0 700 7840 0 0 -700 -1280 0 0 0zm10990 700l-2500 -3290c260,100 590,160 900,130 1040,-70 1670,-820 1670,-1990l0 -3970 -2980 0 0 670 2160 0 0 3210c0,920 -440,1530 -1310,1530 -480,0 -910,-240 -1170,-610l-3590 -4800 -930 0 2500 3280c-250,-80 -590,-130 -900,-120 -1030,80 -1670,820 -1670,1990l0 3970 2970 0 0 -670 -2140 0 0 -3210c0,-930 430,-1530 1300,-1530 500,0 900,240 1180,600l3570 4810 940 0 0 0zm8570 0l920 0 3470 -8420 0 -700 -5500 0 0 -1520 -850 0 0 2220 5430 0 -3470 8420zm6230 -9120l0 700 1510 0 0 7720 -1970 0 0 700 2530 0c230,0 310,-90 310,-310l0 -8110 5040 0 0 8420 870 0 0 -9120 -8290 0 0 0zm12520 9120l910 0 3480 -8420 0 -700 -5510 0 0 -1520 -830 0 0 2220 5430 0 -3480 8420z"/>
  <line class="fil4 str10" x1="56280" y1="634210" x2="137380" y2= "634210" />
  <polygon class="fil6" points="57580,638660 49870,634210 57580,629760 "/>
  <line class="fil4 str2" x1="332440" y1="729930" x2="414480" y2= "743600" />
  <g id="_2879702189232">
   <polyline class="fil4 str11" points="788220,640 782400,42830 695940,211000 683280,225260 666490,218610 590480,113130 610740,640 "/>
   <path class="fil4 str11" d="M878140 784010l13010 -82940c920,-6400 -1370,-12840 -6130,-17210l-41900 -38560c-8570,-7890 -8420,-21500 350,-29200l69780 -61220c6390,-5610 8440,-14700 5090,-22510l-29880 -69440c-4070,-9490 -110,-20520 9090,-25220 8210,-4220 12380,-13580 10020,-22500l-57540 -217200c-5700,-21540 -25180,-36530 -47450,-36530l-28730 0 -45670 -17710c-12170,-4720 -20190,-16430 -20190,-29500l0 -25440"/>
   <path class="fil4 str11" d="M174170 1032970l29100 -102240c2130,-7510 7450,-13720 14550,-16970l65180 -29930c10090,-4640 16260,-15020 15520,-26080l-6090 -90540c-740,-11080 5450,-21460 15530,-26080l41270 -18920c6630,-3030 11730,-8650 14120,-15550l9730 -28140c2320,-6700 1880,-14060 -1220,-20440l-22220 -45630c-4860,-10000 -3030,-21970 4600,-30050l79550 -84200c11380,-12050 9180,-31420 -4610,-40610 -10190,-6780 -14470,-19590 -10410,-31130l7700 -21830c3780,-10690 13870,-17840 25210,-17840l25310 0c8080,0 15730,-3660 20810,-9950l81860 -101520c3340,-4150 7830,-7190 12910,-8760l46640 -14400c6540,-2020 12050,-6470 15400,-12440l11880 -21110"/>
  </g>
  <path class="fil7" d="M566020 306500l0 0c9960,0 18050,-8090 18050,-18050l0 -650c0,-9960 -8090,-18050 -18050,-18050 -9970,0 -18050,8090 -18050,18050l0 650c0,9960 8080,18050 18050,18050z"/>
  <path class="fil8" d="M561320 286240c-310,0 -590,30 -860,70l3060 -3890 -1430 0 -3400 4300c-650,850 -1080,1720 -1080,2880 0,2210 1300,3550 3530,3550 2220,0 3510,-1340 3510,-3550 0,-2100 -1270,-3360 -3330,-3360l0 0zm-180 5860c-1360,0 -2160,-940 -2160,-2500 0,-1540 850,-2480 2160,-2480 1340,0 2170,940 2170,2480 0,1560 -830,2500 -2170,2500zm9160 -9770c-2380,0 -3670,1220 -3670,3780l0 3230c0,2580 1290,3810 3670,3810 2370,0 3660,-1230 3660,-3810l0 -3230c0,-2560 -1290,-3780 -3660,-3780zm-2280 3530c0,-1660 830,-2470 2280,-2470 1410,0 2280,810 2280,2470l0 3720c0,1680 -870,2500 -2280,2500 -1450,0 -2280,-820 -2280,-2500l0 -3720z"/>
  <path class="fil7" d="M427920 525280l0 0c9970,0 18050,-8080 18050,-18050l0 -640c0,-9980 -8080,-18060 -18050,-18060 -9960,0 -18050,8080 -18050,18060l0 640c0,9970 8090,18050 18050,18050z"/>
  <path class="fil8" d="M423220 505010c-300,0 -590,30 -860,90l3050 -3890 -1420 0 -3400 4290c-650,850 -1080,1730 -1080,2880 0,2220 1310,3550 3540,3550 2220,0 3510,-1330 3510,-3550 0,-2100 -1280,-3370 -3340,-3370l0 0zm-170 5880c-1360,0 -2170,-950 -2170,-2510 0,-1540 850,-2480 2170,-2480 1330,0 2160,940 2160,2480 0,1560 -830,2510 -2160,2510zm9150 -9780c-2380,0 -3670,1210 -3670,3790l0 3220c0,2580 1290,3810 3670,3810 2380,0 3670,-1230 3670,-3810l0 -3220c0,-2580 -1290,-3790 -3670,-3790zm-2290 3540c0,-1670 840,-2480 2290,-2480 1420,0 2290,810 2290,2480l0 3720c0,1680 -870,2500 -2290,2500 -1450,0 -2290,-820 -2290,-2500l0 -3720z"/>
  <path class="fil7" d="M353860 629340l0 0c9970,0 18050,-8080 18050,-18060l0 -640c0,-9970 -8080,-18050 -18050,-18050 -9970,0 -18050,8080 -18050,18050l0 640c0,9980 8080,18060 18050,18060z"/>
  <path class="fil8" d="M349160 609070c-300,0 -590,30 -850,80l3050 -3890 -1430 0 -3390 4300c-660,840 -1090,1720 -1090,2870 0,2230 1310,3560 3540,3560 2220,0 3520,-1330 3520,-3560 0,-2100 -1290,-3360 -3350,-3360l0 0zm-170 5880c-1360,0 -2170,-950 -2170,-2520 0,-1530 850,-2470 2170,-2470 1330,0 2160,940 2160,2470 0,1570 -830,2520 -2160,2520zm9150 -9780c-2380,0 -3670,1210 -3670,3790l0 3210c0,2590 1290,3820 3670,3820 2380,0 3680,-1230 3680,-3820l0 -3210c0,-2580 -1300,-3790 -3680,-3790zm-2280 3540c0,-1680 840,-2490 2280,-2490 1410,0 2290,810 2290,2490l0 3710c0,1690 -880,2500 -2290,2500 -1440,0 -2280,-810 -2280,-2500l0 -3710z"/>
  <path class="fil7" d="M191160 967090l0 0c9960,0 18050,-8080 18050,-18060l0 -640c0,-9970 -8090,-18050 -18050,-18050 -9970,0 -18050,8080 -18050,18050l0 640c0,9980 8080,18060 18050,18060z"/>
  <path class="fil8" d="M186460 946820c-310,0 -590,30 -860,70l3060 -3890 -1430 0 -3410 4310c-640,850 -1070,1710 -1070,2870 0,2220 1300,3560 3530,3560 2220,0 3510,-1340 3510,-3560 0,-2100 -1270,-3360 -3330,-3360l0 0zm-180 5870c-1360,0 -2160,-950 -2160,-2510 0,-1540 850,-2480 2160,-2480 1340,0 2170,940 2170,2480 0,1560 -830,2510 -2170,2510zm9160 -9780c-2380,0 -3670,1220 -3670,3790l0 3220c0,2580 1290,3820 3670,3820 2370,0 3660,-1240 3660,-3820l0 -3220c0,-2570 -1290,-3790 -3660,-3790zm-2280 3550c0,-1680 830,-2480 2280,-2480 1410,0 2280,800 2280,2480l0 3700c0,1700 -870,2520 -2280,2520 -1450,0 -2280,-820 -2280,-2520l0 -3700z"/>
  <polygon class="fil2 str6" points="713410,738740 749510,738740 749510,715450 713410,715450 "/>
  <path class="fil3" d="M723530 725790l-780 0 3610 -3610 0 -740 -5760 0 0 740 4800 0 -3600 3630 0 650 1480 0c1830,0 2640,740 2640,2390 0,1720 -810,2500 -2640,2500l-2680 0 0 740 2930 0c2270,0 3300,-1050 3300,-3260 0,-2050 -1030,-3040 -3300,-3040l0 0zm7920 5560l-2170 0 0 740 2350 0c2410,0 3390,-970 3390,-3240 0,-2300 -980,-3280 -3360,-3280l-1590 0 0 -3390 4760 0 0 -740 -5600 0 0 4830 2220 0c1950,0 2630,780 2630,2550 0,1760 -680,2530 -2630,2530zm8720 -6000c-410,0 -840,80 -1200,190l3280 -4100 -930 0 -3610 4470c-630,790 -1100,1590 -1100,2780 0,2140 1310,3490 3450,3490 2130,0 3440,-1350 3440,-3490 0,-2040 -1310,-3340 -3330,-3340zm-110 6130c-1560,0 -2570,-1090 -2570,-2790 0,-1680 1060,-2760 2570,-2760 1560,0 2550,1080 2550,2760 0,1700 -990,2790 -2550,2790z"/>
  <polygon class="fil2" points="9460,588330 0,588330 0,267750 9460,267750 "/>
  <path class="fil7" d="M220330 581760l-3520 0 0 2850 880 0 0 12390 3690 0 0 -14090c0,-770 -320,-1150 -1050,-1150l0 0zm8300 11430l0 -11430 -5040 0 0 2850 1360 0 0 8580 3680 0 0 0zm7000 -4510l0 -6920 -4880 0 0 2850 1210 0 0 4070 3670 0 0 0zm12320 -2670l0 -4250 -4580 0 0 2770 1170 0 0 940c0,540 -160,730 -480,730 -220,0 -330,-100 -500,-330l-3130 -4110 -3760 0 6770 8570 -5460 0 0 2860 9380 0 0 -2290 -1700 -2240c1330,-90 2290,-860 2290,-2650l0 0zm7580 -4250l0 2850 1080 0 0 3530c0,1290 -370,1660 -1380,1950l-300 70 -880 -7300c-100,-750 -470,-1100 -1040,-1100l-3420 0 0 2850 1180 0 770 6520 -2180 630 660 2770 5540 -1520c3070,-830 4720,-1840 4720,-4770l0 -6480 -4750 0zm26790 0l-3580 0 0 6840c0,1140 -600,1730 -1810,1730l-3470 0c-1200,0 -1800,-590 -1800,-1730l0 -6840 -3590 0 0 7220c0,2780 1650,4210 4860,4210l4530 0c3220,0 4860,-1430 4860,-4210l0 -7220 0 0zm-8910 5880c0,660 300,980 870,980l2710 0 0 -6860 -3580 0 0 5880zm16070 5550l0 -11430 -5030 0 0 2850 1350 0 0 8580 3680 0zm9170 0c-510,-1680 -730,-3080 -730,-4330l0 -3470c0,-2660 -900,-3630 -3330,-3630l-2620 0 0 2850 1480 0c590,0 790,250 790,940l0 1790c0,1910 -590,2570 -2270,2570l-740 0 0 3280 930 0c1460,0 2320,-650 2760,-1990 130,730 250,1340 510,1990l3220 0 0 0z"/>
  <path class="fil6" d="M381480 746630l-8240 0 0 2280 5310 0 0 6850 2930 0 0 -9130zm-8240 3670l0 5460 2930 0 0 -5460 -2930 0zm14750 -3670l0 2280 860 0 0 2810c0,1040 -300,1330 -1100,1560l-240 60 -700 -5830c-80,-600 -380,-880 -830,-880l-2740 0 0 2280 950 0 610 5200 -1750 500 530 2220 4430 -1220c2450,-660 3760,-1470 3760,-3800l0 -5180 -3780 0 0 0zm9170 5530l0 -5530 -3900 0 0 2280 970 0 0 3250 2930 0 0 0zm1500 -5530l0 2280 820 0 0 3130c0,2810 1270,3790 4160,3790 2910,0 4190,-980 4190,-3790l0 -5410 -9170 0zm6230 5370c0,1110 -390,1550 -1250,1550 -840,0 -1230,-440 -1230,-1550l0 -3090 2480 0 0 3090zm6830 -5350l-2030 -20 0 2280 740 0c390,0 530,180 530,610l0 3950 -1590 0 0 2290 4530 0 0 -6500c0,-1890 -590,-2600 -2180,-2610l0 0zm8650 -1540l-510 4570 1890 0 930 -4570 -2310 0zm12220 1520l-8540 0 0 2280 5610 0 0 3590c0,670 -230,970 -980,970l-820 0 0 2290 1420 0c2200,0 3310,-1070 3310,-3150l0 -5980 0 0zm-8540 3820l0 8350 2940 0 0 -8350 -2940 0zm17600 -3820l-7510 0 0 2280 3620 0 0 6850 2920 0 0 -6850 970 0 0 -2280z"/>
  <path class="fil6" d="M451110 745110l-1340 0 -3180 2430 1360 1830 800 -640 0 7030 3010 0 0 -9940c0,-490 -190,-710 -650,-710l0 0zm6650 -90c-2710,0 -3990,1280 -3990,4230l0 2340c0,2970 1280,4260 3990,4260 2690,0 3970,-1290 3970,-4260l0 -2340c0,-2950 -1280,-4230 -3970,-4230zm-980 3650c0,-940 310,-1360 980,-1360 600,0 960,420 960,1360l0 3500c0,970 -360,1400 -960,1400 -670,0 -980,-430 -980,-1400l0 -3500z"/>
  <polygon class="fil2" points="860060,268470 864690,304280 887780,301290 883150,265480 "/>
  <polygon class="fil4 str6" points="860060,268470 864690,304280 887780,301290 883150,265480 "/>
  <path class="fil3" d="M874000 275670l-100 -770 4050 3120 730 -90 -750 -5710 -720 90 620 4750 -4070 -3090 -650 80 200 1460c230,1820 -410,2720 -2040,2940 -1700,210 -2590,-490 -2820,-2310l-350 -2650 -720 90 380 2900c290,2260 1460,3140 3640,2860 2040,-270 2890,-1410 2600,-3670l0 0zm5500 7970c-260,-2120 -1770,-3250 -3880,-2970 -2040,260 -3150,1730 -2890,3720 50,420 180,830 330,1170l-4480 -2720 130 920 4890 3010c870,520 1730,880 2890,730 2120,-270 3290,-1740 3020,-3860l-10 0zm-6190 800c-200,-1550 740,-2670 2420,-2890 1690,-220 2890,630 3080,2180 200,1550 -730,2670 -2430,2890 -1680,220 -2880,-680 -3070,-2180zm2720 9900c480,1030 1330,1540 2420,1400 1630,-210 2420,-1470 2170,-3380 -250,-1900 -1330,-2940 -2960,-2720 -1080,130 -1790,850 -1980,1990 -560,-1420 -1690,-2070 -3240,-1880 -1910,250 -2820,1690 -2520,4000 300,2300 1540,3470 3450,3230 1550,-210 2470,-1140 2660,-2640l0 0zm1680 -3870c1300,-170 2130,550 2310,1970 180,1420 -430,2320 -1740,2490 -1160,150 -1940,-570 -2120,-1990 -180,-1430 380,-2320 1550,-2470l0 0zm-7150 3190c-230,-1730 500,-2830 2030,-3030 1630,-210 2680,650 2910,2390 220,1740 -580,2850 -2200,3050 -1530,200 -2530,-670 -2740,-2410z"/>
  <g id="_2879702197264">
   <path class="fil7" d="M638990 143430l-7520 0 0 2850 950 0 0 8570 10500 0 0 -7680c0,-2610 -1180,-3740 -3930,-3740l0 0zm360 8560l-3360 0 0 -5710 1950 0c980,0 1410,480 1410,1540l0 4170 0 0zm10040 -1650l0 -6910 -4890 0 0 2850 1200 0 0 4060 3690 0zm2990 4510l3820 0 3660 -8570 0 -2850 -5300 0 0 -1910 -3500 0 0 4760 4970 0 -3650 8570 0 0zm23720 -11420l-3580 0 0 6830c0,1140 -610,1730 -1810,1730l-3470 0c-1210,0 -1810,-590 -1810,-1730l0 -6830 -3580 0 0 7210c0,2780 1640,4210 4860,4210l4530 0c3210,0 4860,-1430 4860,-4210l0 -7210zm-8910 5870c0,650 300,970 860,970l2710 0 0 -6840 -3570 0 0 5870zm16070 5550l0 -11420 -5030 0 0 2850 1350 0 0 8570 3680 0 0 0zm6820 0l3690 0 0 -6950c0,-3130 -1420,-4470 -4640,-4470l-3850 0 0 2850 3180 0c1150,0 1620,640 1620,2150l0 6420 0 0zm10220 -4510l0 -6910 -4880 0 0 2850 1210 0 0 4060 3670 0 0 0z"/>
   <path class="fil6" d="M629060 62740l-9410 0 0 1340 7710 0 0 10080 1700 0 0 -11420zm-9340 4470l0 6950 1700 0 0 -6950 -1700 0zm19120 -4580c-1810,0 -2790,740 -3700,3160l-330 890 -1270 -3940 -1680 0 2000 5910 -1930 5510 1710 0 2740 -7900c650,-1790 1310,-2300 2340,-2300 1420,0 1930,1010 1930,3130l0 5740 -3760 0 0 1330 5390 0 0 -6890c0,-3170 -1040,-4640 -3440,-4640l0 0zm9040 11530l0 -11420 -3420 0 0 1340 1740 0 0 10080 1680 0zm13990 -10080l0 -1340 -10960 0 0 1340 1030 0 0 10080 1710 0 0 -10080 5490 0 0 10080 1700 0 0 -10080 1030 0zm13840 10080l1710 0 0 -7480c0,-2760 -1230,-3940 -4030,-3940l-3940 0 0 1340 3660 0c1820,0 2600,830 2600,2790l0 7290 0 0zm14360 -11420l-9410 0 0 1340 7720 0 0 10080 1690 0 0 -11420zm-9340 4470l0 6950 1700 0 0 -6950 -1700 0z"/>
   <path class="fil6" d="M627320 91650l-8240 0 0 2270 5310 0 0 6850 2930 0 0 -9120zm-8240 3660l0 5460 2940 0 0 -5460 -2940 0zm14750 -3660l0 2270 860 0 0 2820c0,1030 -300,1320 -1100,1550l-240 60 -700 -5820c-80,-600 -380,-880 -830,-880l-2740 0 0 2270 950 0 610 5210 -1750 490 530 2230 4430 -1220c2450,-670 3780,-1470 3780,-3810l0 -5170 -3800 0 0 0zm9170 5520l0 -5520 -3900 0 0 2270 980 0 0 3250 2920 0zm1500 -5520l0 2270 820 0 0 3140c0,2790 1270,3780 4160,3780 2910,0 4190,-990 4190,-3780l0 -5410 -9170 0zm6230 5370c0,1100 -390,1540 -1250,1540 -840,0 -1230,-440 -1230,-1540l0 -3100 2480 0 0 3100zm6830 -5350l-2030 -20 0 2270 740 0c390,0 530,170 530,610l0 3960 -1590 0 0 2280 4530 0 0 -6500c0,-1890 -580,-2590 -2180,-2600l0 0zm8540 -1240l-510 4560 1900 0 930 -4560 -2320 0 0 0zm11220 1220l-7500 0 0 2270 3610 0 0 6850 2930 0 0 -6850 960 0 0 -2270z"/>
   <path class="fil6" d="M686780 90130l-1340 0 -3180 2430 1360 1820 820 -630 0 7020 3000 0 0 -9940c0,-490 -200,-700 -660,-700l0 0zm6220 8210l1940 -2460c740,-950 1070,-1760 1070,-2980 0,-1940 -890,-2770 -2950,-2770l-3590 0 0 2430 2710 0c590,0 830,250 830,670 0,510 -240,850 -670,1410l-2870 3700 0 2430 6520 0 0 -2430 -2990 0z"/>
   <path class="fil4 str9" d="M712020 66810c0,2730 -2210,4940 -4940,4940 -2730,0 -4940,-2210 -4940,-4940 0,-2730 2210,-4950 4940,-4950 2730,0 4940,2220 4940,4950z"/>
   <line class="fil4 str9" x1="707080" y1="71750" x2="707080" y2= "79610" />
   <polygon class="fil2 str12" points="575080,82030 611180,82030 611180,58750 575080,58750 "/>
   <path class="fil9" d="M588140 74650l-2190 0 0 720 2360 0c2410,0 3400,-970 3400,-3240 0,-2290 -990,-3270 -3370,-3270l-1590 0 0 -3400 4770 0 0 -720 -5610 0 0 4830 2230 0c1940,0 2620,780 2620,2530 0,1770 -680,2550 -2620,2550zm9270 -10010c-2280,0 -3580,1200 -3580,3670l0 3460c0,2480 1300,3700 3580,3700 2280,0 3570,-1220 3570,-3700l0 -3460c0,-2470 -1290,-3670 -3570,-3670zm-2680 3510c0,-1880 1000,-2810 2680,-2810 1640,0 2660,930 2660,2810l0 3780c0,1890 -1020,2830 -2660,2830 -1680,0 -2680,-940 -2680,-2830l0 -3780z"/>
  </g>
  <g id="_2843920522320">
   <path class="fil10" d="M892290 810920l-14370 0 0 2750 2750 0 0 7280c0,1620 -280,2690 -820,3240 -430,440 -1230,670 -2410,700l-740 0 0 2720 1000 0c4120,-30 5930,-2030 5930,-6570l0 -7370 5700 0 0 13470 2960 0 0 -16220 0 0zm10310 9420l-30 -9420 -6500 0 0 2750 3640 0 0 6670 2890 0zm17460 4080l-2120 0 0 -13500 -11530 0 0 2750 8600 0 0 10750 -8600 0 0 2720 13650 0 0 -2720 0 0zm16760 -13500l-13300 0 0 2750 10380 0 0 13470 2920 0 0 -16220zm-9660 16380l0 -9090 -2810 50 -30 9040 2840 0z"/>
   <path class="fil10" d="M860970 880280c870,0 1320,-340 1320,-1280l0 -31450c0,-3640 -2980,-6590 -6370,-6590l-10570 0c-870,0 -1350,480 -1350,1410l0 3430c0,820 480,1220 1350,1220 1390,0 260,1540 260,3090l0 28890c0,940 470,1280 1340,1280l14020 0zm-9650 -32200c0,-740 470,-1060 1210,-1060l2860 0c720,0 1190,320 1190,1060l0 25080c0,740 -470,1070 -1190,1070l-2860 0c-740,0 -1210,-330 -1210,-1070l0 -25080zm17830 -7120c-870,0 -1340,480 -1340,1410l0 3430c0,880 470,1280 1340,1280 1590,0 470,1540 470,3100l0 9810c0,860 450,1330 1390,1330l3530 0c870,0 1260,-470 1260,-1330l0 -17750c0,-930 -470,-1280 -1340,-1280l-5310 0zm18740 6060c740,0 1190,320 1190,1060l0 30850c0,870 480,1350 1400,1350l3470 0c790,0 1260,-480 1260,-1350l0 -30980c0,-610 180,-930 730,-1010 720,-130 1140,-610 1140,-1400l0 -3300c0,-930 -470,-1280 -1340,-1280l-13970 0c-870,0 -1310,480 -1310,1410l0 3430c0,820 440,1220 1310,1220l6120 0 0 0zm20480 34810c0,-1950 1390,-1340 2520,-1810 3190,-1150 6180,-4180 6500,-8140l2680 -28560c130,-1220 -870,-2360 -2270,-2360l-14090 0c-870,0 -1340,480 -1340,1410l0 3430c0,820 470,1220 1340,1220l8630 0c680,0 1080,320 1000,1010l-2130 23850c-180,1490 -1580,2280 -2400,2280 -180,0 -440,0 -440,-340l0 -16730c0,-790 -410,-1270 -1210,-1270l-3400 0c-920,0 -1390,480 -1390,1270l0 25880c0,880 470,1350 1390,1350l3400 0c800,0 1210,-470 1210,-1350l0 -1140 0 0zm17590 -40870c-850,0 -1310,480 -1310,1410l0 3430c0,820 460,1220 1310,1220l740 0c1600,0 520,1600 520,3090l0 28820c0,870 480,1350 1420,1350l3510 0c870,0 1280,-480 1280,-1350l0 -36690c0,-930 -470,-1280 -1340,-1280l-6130 0 0 0zm14910 0c-810,0 -1260,480 -1260,1410l0 3430c0,820 450,1220 1260,1220l800 0c1600,0 520,1600 520,3090l-60 23320c0,390 -340,800 -870,800l-2330 0c-850,0 -1320,470 -1320,1420l0 3350c0,880 470,1280 1320,1280l3070 0c3590,0 6320,-2820 6320,-6380l0 -31660c0,-930 -480,-1280 -1350,-1280l-6100 0 0 0zm13940 33270c-840,0 -1310,470 -1310,1420l0 3350c0,880 470,1280 1310,1280l14050 0c790,0 1260,-400 1260,-1280l0 -3280c0,-810 -340,-1290 -1070,-1420 -530,-70 -800,-400 -800,-1010l0 -31050c0,-930 -460,-1280 -1330,-1280l-12110 0c-840,0 -1310,480 -1310,1410l0 3430c0,820 470,1220 1310,1220l6130 0c730,0 1190,320 1190,1060l0 25080c0,740 -460,1060 -1190,1060l-6130 0 0 10z"/>
   <polygon class="fil11" points="928500,837610 925380,834500 928500,831370 931610,834500 "/>
   <polygon class="fil11" points="892270,889370 889160,886250 892270,883130 895380,886250 "/>
   <polygon class="fil11" points="913960,888860 910850,885750 913960,882630 917090,885750 "/>
   <polygon class="fil11" points="913960,896530 910850,893420 913960,890300 917090,893420 "/>
   <polygon class="fil11" points="956400,862950 953270,859830 956400,856720 959510,859830 "/>
   <path class="fil4 str13" d="M958440 819400l29480 0c4190,4180 6520,6530 10710,10710l0 61550c-4190,4180 -6520,6530 -10710,10710l-160310 0c-4180,-4180 -6520,-6530 -10710,-10710l0 -61550c4190,-4180 6530,-6530 10710,-10710l31410 0"/>
  </g>
  <polygon class="fil6" points="936840,728980 927450,728980 927450,730320 933550,730320 933550,740420 935240,740420 935240,730320 936840,730320 936840,728980 "/>
 </g>
</svg>
