<svg id="Capa_1" enable-background="new 0 0 512 512" height="512" viewBox="0 0 512 512" width="512" xmlns="http://www.w3.org/2000/svg"><g><path d="m429.344 168.021c-33.458-8.364-74.728-14.024-119.578-16.539 7.085-10.408 11.234-22.969 11.234-36.482 0-9.142-2.801-26.124-27.025-67.882-12.651-21.81-25.109-39.885-25.633-40.644-2.8-4.054-7.414-6.474-12.342-6.474s-9.542 2.42-12.342 6.475c-.524.759-12.982 18.834-25.633 40.644-24.224 41.757-27.025 58.739-27.025 67.881 0 13.513 4.149 26.074 11.234 36.483-44.85 2.515-86.12 8.175-119.578 16.539-54.183 13.545-81.656 32.715-81.656 56.978 0 2.565.326 5.069.939 7.52 8.966 60.182 39.157 115.217 85.149 155.105 22.033 19.11 46.998 34.131 73.715 44.645l-21.301 43.796c-3.793 7.799-3.311 16.844 1.288 24.194 4.6 7.352 12.522 11.74 21.194 11.74h188.032c8.671 0 16.594-4.389 21.194-11.74 4.599-7.351 5.081-16.396 1.288-24.194l-21.301-43.796c26.717-10.514 51.682-25.535 73.715-44.645 45.992-39.888 76.183-94.923 85.149-155.105.613-2.45.939-4.955.939-7.52 0-24.263-27.473-43.433-81.656-56.979zm-185.462-105.689c4.186-7.222 8.398-14.084 12.118-19.973 3.72 5.889 7.932 12.751 12.118 19.973 21.232 36.63 22.882 49.573 22.882 52.668 0 13.933-8.186 25.988-20 31.616v-21.616c0-8.284-6.716-15-15-15s-15 6.716-15 15v21.616c-11.814-5.628-20-17.682-20-31.616 0-3.095 1.65-16.038 22.882-52.668zm157.613 195.116c-41.164 8.135-91.897 12.552-145.495 12.552-53.592 0-104.319-4.416-145.482-12.55 34.19-9.947 84.307-17.45 145.482-17.45s111.307 7.5 145.495 17.448zm-370.495-32.448c0-2.607 10.487-15.763 58.933-27.874 40.644-10.161 93.823-16.118 151.067-17.006v30.028c-76.184 1.486-142.773 14.245-178.929 34.292-24.855-9.202-31.071-17.436-31.071-19.44zm138.976 257 19.619-40.337c20.944 5.485 42.645 8.337 64.612 8.337h3.586c21.967 0 43.669-2.851 64.612-8.337l19.619 40.337zm87.817-62h-3.586c-96.73 0-181.739-62.773-212.655-151.541 11.348 4.99 25.042 9.504 41.104 13.519 46.486 11.622 108.047 18.022 173.344 18.022s126.858-6.4 173.344-18.021c16.06-4.015 29.754-8.528 41.101-13.518-30.917 88.766-115.923 151.539-212.652 151.539zm192.136-175.56c-36.156-20.047-102.745-32.806-178.929-34.292v-30.028c57.244.888 110.423 6.844 151.067 17.006 48.446 12.111 58.933 25.267 58.933 27.874 0 2.004-6.216 10.238-31.071 19.44z"/></g></svg>